<?xml version="1.0" encoding="utf-8"?>
<!-- Generator: Adobe Illustrator 19.1.0, SVG Export Plug-In . SVG Version: 6.00 Build 0)  -->
<!DOCTYPE svg PUBLIC "-//W3C//DTD SVG 1.1//EN" "http://www.w3.org/Graphics/SVG/1.1/DTD/svg11.dtd">
<svg version="1.1" id="Layer_1" xmlns="http://www.w3.org/2000/svg" xmlns:xlink="http://www.w3.org/1999/xlink" x="0px" y="0px"
	 viewBox="-226 265 346.5 72" style="enable-background:new -226 265 346.5 72;" xml:space="preserve">
<style type="text/css">
	.st0{fill:#FFFFFF;}
</style>
<g id="Layer_1_1_">
	<g id="XMLID_842_">
		<g id="XMLID_705_">
			<path id="XMLID_721_" class="st0" d="M-202.6,274.2v42.3h-10v-42.3H-226v-8.9h36.8v8.9H-202.6z"/>
			<path id="XMLID_719_" class="st0" d="M-181.1,316.6v-51.3h33.8v8.9h-23.8v12h20.2v8.9h-20.2v12.5h23.8v8.9h-33.8V316.6z"/>
			<path id="XMLID_717_" class="st0" d="M-120.4,317c-5.5,0-10.1-1.9-13.8-5.6c-2.2-2.2-3.6-4.8-4.2-7.7c-0.6-2.9-0.9-7.1-0.9-12.7
				s0.3-9.9,0.9-12.7c0.6-3,1.9-5.5,4.2-7.7c3.7-3.7,8.4-5.6,13.8-5.6c9.9,0,17.1,5.8,18.9,16.2h-10.2c-1.1-4.4-3.8-7.3-8.6-7.3
				c-2.7,0-4.9,0.9-6.4,2.7c-2.1,2.2-2.5,4.5-2.5,14.5c0,9.9,0.4,12.2,2.5,14.5c1.5,1.8,3.7,2.7,6.4,2.7c4.8,0,7.6-2.9,8.6-7.3h10.2
				C-103.2,311.2-110.6,317-120.4,317z"/>
			<path id="XMLID_715_" class="st0" d="M-65.5,316.6v-21.5h-17.4v21.5h-10v-51.3h10v21h17.4v-21h10v51.3L-65.5,316.6L-65.5,316.6z"
				/>
			<path id="XMLID_713_" class="st0" d="M-13.2,316.6l-20.3-31.5v31.5h-10v-51.3h8.9l20.3,31.4v-31.4h10v51.3H-13.2z"/>
			<path id="XMLID_711_" class="st0" d="M7.6,316.6v-51.3h10v51.3H7.6z"/>
			<path id="XMLID_709_" class="st0" d="M46.7,317c-5.5,0-10.1-1.9-13.8-5.6c-2.2-2.2-3.6-4.8-4.2-7.7c-0.6-2.9-0.9-7.1-0.9-12.7
				s0.3-9.9,0.9-12.7c0.6-3,1.9-5.5,4.2-7.7c3.7-3.7,8.4-5.6,13.8-5.6c9.9,0,17.1,5.8,18.9,16.2H55.4c-1.1-4.4-3.8-7.3-8.6-7.3
				c-2.7,0-4.9,0.9-6.4,2.7c-2.1,2.2-2.5,4.5-2.5,14.5c0,9.9,0.4,12.2,2.5,14.5c1.5,1.8,3.7,2.7,6.4,2.7c4.8,0,7.6-2.9,8.6-7.3h10.2
				C63.9,311.2,56.5,317,46.7,317z"/>
			<path id="XMLID_706_" class="st0" d="M102.6,316.6l-3-9.1H81.4l-3.1,9.1H67.9l18.6-51.3h7.8l18.7,51.3H102.6z M90.7,280.4
				l-6.5,18.7h12.7L90.7,280.4z"/>
		</g>
		<polygon id="XMLID_681_" class="st0" points="120.5,337 116.9,327 -226,327 -226,337 		"/>
	</g>
</g>
</svg>
