<svg id="Layer_1" data-name="Layer 1" xmlns="http://www.w3.org/2000/svg" viewBox="0 0 539.23 113.87"><defs><style>.cls-1{fill:#ff7040;}.cls-2{fill:#ff4046;}.cls-3{fill:#ffaf40;}.cls-4{fill:#ffef40;}.cls-5{fill:#fff;}.cls-6{fill:#806d60;}.cls-7{fill:#a68e7c;}</style></defs><title>bitcamp-horizontal-logo</title><polygon class="cls-1" points="49.82 28.49 49.82 21.35 42.7 21.35 42.7 28.49 28.48 28.49 28.48 56.93 35.59 56.93 35.59 35.6 56.93 35.6 56.93 28.49 49.82 28.49"/><polygon class="cls-2" points="42.7 7.11 42.7 14.22 35.59 14.22 35.59 21.35 28.48 21.35 28.48 28.49 42.7 28.49 42.7 21.35 49.82 21.35 49.82 7.11 42.7 7.11"/><rect class="cls-2" x="49.82" width="7.11" height="7.11"/><rect class="cls-2" x="71.15" y="21.35" width="7.11" height="7.14"/><rect class="cls-2" x="64.04" y="14.22" width="7.11" height="7.12"/><polygon class="cls-1" points="78.27 35.6 78.27 28.49 64.04 28.49 64.04 35.6 71.15 35.6 71.15 42.71 78.27 42.71 78.27 56.93 85.38 56.93 85.38 35.6 78.27 35.6"/><polygon class="cls-3" points="71.15 42.71 71.15 35.6 35.59 35.6 35.59 64.05 42.7 64.05 42.7 42.71 64.04 42.71 64.04 49.83 71.15 49.83 71.15 64.05 78.27 64.05 78.27 42.71 71.15 42.71"/><path class="cls-4" d="M94.86,73.37V66.26H73.53V94.71H102V73.37Zm0,14.23H80.64V73.37h7.11v7.11h7.11Z" transform="translate(-30.82 -23.55)"/><polygon class="cls-5" points="56.93 56.93 56.93 49.83 49.82 49.83 49.82 64.05 64.04 64.05 64.04 56.93 56.93 56.93"/><path class="cls-6" d="M144.68,126.75A10.66,10.66,0,0,1,134,137.42h0a10.68,10.68,0,0,1-10.68-10.67h0A10.69,10.69,0,0,1,134,116.06h0a10.68,10.68,0,0,1,10.67,10.69Z" transform="translate(-30.82 -23.55)"/><path class="cls-6" d="M38.52,116.48h0l.34-.09Z" transform="translate(-30.82 -23.55)"/><path class="cls-6" d="M144.68,105.38A10.66,10.66,0,0,0,134,94.71a10.94,10.94,0,0,0-2.76.37h0L39.5,116.26a10.1,10.1,0,0,1,2-.2,10.68,10.68,0,0,1,2.76,21h0l92.57-21.37h0A10.69,10.69,0,0,0,144.68,105.38Z" transform="translate(-30.82 -23.55)"/><path class="cls-7" d="M52.17,126.75a10.67,10.67,0,0,1-10.68,10.67h0a10.66,10.66,0,0,1-10.67-10.67h0a10.68,10.68,0,0,1,10.67-10.69h0a10.69,10.69,0,0,1,10.68,10.69Z" transform="translate(-30.82 -23.55)"/><path class="cls-7" d="M123.33,126.75A10.66,10.66,0,0,1,136,116.25L44.26,95.07h0a11.28,11.28,0,0,0-2.76-.37,10.45,10.45,0,0,0-10.42,10.67A11.1,11.1,0,0,0,39,115.64l0,0a3,3,0,0,0,.71.19l91.57,21.19h0A10.68,10.68,0,0,1,123.33,126.75Z" transform="translate(-30.82 -23.55)"/><path class="cls-7" d="M137,116.49h0l-.32-.07Z" transform="translate(-30.82 -23.55)"/><path class="cls-1" d="M223.65,87.6A38.68,38.68,0,0,1,222,99.2a27.49,27.49,0,0,1-4.81,9.23,21.64,21.64,0,0,1-17.43,8.29,136.29,136.29,0,0,1-27.22-3V45.87c-1.37-.2-2.51-.43-3.37-.59s-1.41-.21-1.76-.27l-.81-.15a3.12,3.12,0,0,1-2.71-3.4v-6.4h22V66.94a26.18,26.18,0,0,1,7.47-5.57,21.29,21.29,0,0,1,9.78-2.1,18.59,18.59,0,0,1,8.32,1.83A19.18,19.18,0,0,1,218,66.56a29.11,29.11,0,0,1,4.23,8.87A47.5,47.5,0,0,1,223.65,87.6Zm-13.79,0a41,41,0,0,0-.79-8.34,16.93,16.93,0,0,0-2.25-5.52,9,9,0,0,0-3.58-3,10.57,10.57,0,0,0-4.76-1,13.9,13.9,0,0,0-7.12,1.78,20.82,20.82,0,0,0-5.49,5v29.08a61.32,61.32,0,0,0,10.82,1,12.88,12.88,0,0,0,5.46-1.12,10.26,10.26,0,0,0,4.14-3.5A18.06,18.06,0,0,0,208.93,96,35.84,35.84,0,0,0,209.86,87.6Z" transform="translate(-30.82 -23.55)"/><path class="cls-1" d="M258.38,109.52v6.4H228.62v-6.4a3.12,3.12,0,0,1,2.68-3.41A5.75,5.75,0,0,1,232,106c.28,0,.83-.16,1.6-.32s1.81-.32,3.17-.53V70.88c-1.37-.2-2.4-.42-3.17-.56s-1.32-.23-1.6-.3a5.09,5.09,0,0,0-.72-.11,3.11,3.11,0,0,1-2.68-3.4V60.12h21.6v45.05c1.35.21,2.41.43,3.17.53s1.33.28,1.6.32a6,6,0,0,1,.73.09A3.13,3.13,0,0,1,258.38,109.52ZM251.53,47.1a8.94,8.94,0,0,1-1.9,2.69,8.83,8.83,0,0,1-2.74,1.83,8.51,8.51,0,0,1-3.39.67,8.38,8.38,0,0,1-3.26-.67,9.83,9.83,0,0,1-2.7-1.83,8.45,8.45,0,0,1-1.77-2.69,7.83,7.83,0,0,1-.72-3.24,9.34,9.34,0,0,1,2.49-6.11,10.09,10.09,0,0,1,2.7-1.84,8.33,8.33,0,0,1,3.26-.66,8.51,8.51,0,0,1,3.39.66,9,9,0,0,1,2.74,1.84,8.63,8.63,0,0,1,1.9,2.75,8.17,8.17,0,0,1,.67,3.36A7.65,7.65,0,0,1,251.53,47.1Z" transform="translate(-30.82 -23.55)"/><path class="cls-1" d="M272.67,112.71q-3.92-4.15-3.91-11.35V70.19H263.1a2.71,2.71,0,0,1-1.83-.72,2.6,2.6,0,0,1-.78-2.11V62l8.93-1.46,2.82-15.27a2.79,2.79,0,0,1,1-1.68,3.13,3.13,0,0,1,2-.55h6.95V60.58h14.62V70.2H282.17v30.26a5.93,5.93,0,0,0,1.27,4A4.36,4.36,0,0,0,286.9,106a5.11,5.11,0,0,0,2.08-.36,9.63,9.63,0,0,0,1.5-.58c.42-.26.78-.43,1.09-.66a2.62,2.62,0,0,1,1-.28,2,2,0,0,1,1,.28,9.18,9.18,0,0,1,.81.91l4,6.55a19.65,19.65,0,0,1-6.7,3.67,24.75,24.75,0,0,1-7.82,1.25C279,116.79,275.29,115.4,272.67,112.71Z" transform="translate(-30.82 -23.55)"/><path class="cls-1" d="M348.29,107.63a26.36,26.36,0,0,1-10.23,7.2,27.64,27.64,0,0,1-5.74,1.46,34.71,34.71,0,0,1-5.95.44,24.74,24.74,0,0,1-9.72-1.9,23.12,23.12,0,0,1-7.92-5.65,26,26,0,0,1-5.34-9.07,34.67,34.67,0,0,1-2-12.2,36.09,36.09,0,0,1,1.77-11.38,25,25,0,0,1,5.19-9.12,24.16,24.16,0,0,1,8.45-6,29.64,29.64,0,0,1,11.63-2.14c4.47,0,10.29,1.29,17.52,4v17.2h-6.28a2.4,2.4,0,0,1-2.53-2.07c-.12-.87-.45-3.51-.87-7.86a31.72,31.72,0,0,0-7-1.07A14.07,14.07,0,0,0,323,70.76a12,12,0,0,0-4.37,3.68A17.19,17.19,0,0,0,316,80.2a30.64,30.64,0,0,0-.87,7.72,28.36,28.36,0,0,0,1,7.91,17.22,17.22,0,0,0,2.69,5.91,12.32,12.32,0,0,0,4.36,3.54,13.32,13.32,0,0,0,5.78,1.22,13.49,13.49,0,0,0,5.13-.78A16.13,16.13,0,0,0,337.4,104a26.61,26.61,0,0,0,2.33-1.75,4,4,0,0,1,2.27-.77,2.75,2.75,0,0,1,2.42,1.25Z" transform="translate(-30.82 -23.55)"/><path class="cls-1" d="M407.12,109.42v6.38H394.38a6.47,6.47,0,0,1-3-.54,3.75,3.75,0,0,1-1.68-2.34L388.54,109a45.76,45.76,0,0,1-4.14,3.33,28.15,28.15,0,0,1-4.19,2.4,25.93,25.93,0,0,1-4.59,1.49,28.83,28.83,0,0,1-5.48.44,22.52,22.52,0,0,1-6.46-.89,14,14,0,0,1-5.12-2.93,12.59,12.59,0,0,1-3.33-4.69,17,17,0,0,1-1.24-6.64,12.6,12.6,0,0,1,1.7-6.22,15.53,15.53,0,0,1,5.51-5.58,34.25,34.25,0,0,1,10.23-4.09,62.42,62.42,0,0,1,15.86-1.69V80.65c0-3.76-.77-6.51-2.32-8.34a8.63,8.63,0,0,0-6.87-2.74,17.63,17.63,0,0,0-5.41.76,26,26,0,0,0-3.82,1.7,28.92,28.92,0,0,1-3,1.72,5.72,5.72,0,0,1-3,.82,3.83,3.83,0,0,1-2.29-.75,4.78,4.78,0,0,1-1.55-1.76l-2.49-4.28A33,33,0,0,1,379.77,59a22.78,22.78,0,0,1,8.67,1.59A18.68,18.68,0,0,1,399,71.89a27.43,27.43,0,0,1,1.33,8.66v24.74c1.25.26,2.2.38,2.91.53a7,7,0,0,0,1.15.21A3.13,3.13,0,0,1,407.12,109.42ZM387.29,92.15a58.45,58.45,0,0,0-9.78.72,26.59,26.59,0,0,0-6.31,1.92,7.75,7.75,0,0,0-3.39,2.72,6.67,6.67,0,0,0,1.06,8.42,9.42,9.42,0,0,0,5.5,1.5,19.42,19.42,0,0,0,3.79-.36,15.35,15.35,0,0,0,3.27-1.1,21.41,21.41,0,0,0,3-1.88,22.56,22.56,0,0,0,2.89-2.61V92.15Z" transform="translate(-30.82 -23.55)"/><path class="cls-1" d="M508.32,109.52v6.4H486.73V80.43c0-3.59-.77-6.27-2.3-8a8.57,8.57,0,0,0-6.83-2.72,10.19,10.19,0,0,0-3.82.68,9.29,9.29,0,0,0-3.11,2.08,9,9,0,0,0-2.08,3.36,12.32,12.32,0,0,0-.75,4.61v24.75c1.33.21,2.4.43,3.17.52s1.32.28,1.6.33a4.47,4.47,0,0,1,.73.09,3.14,3.14,0,0,1,2.66,3.41v6.4H454.35V80.43c0-3.73-.73-6.47-2.2-8.18s-3.77-2.56-6.69-2.56a10.54,10.54,0,0,0-5.37,1.47,17.51,17.51,0,0,0-4.69,3.89v30.12c1.37.21,2.39.43,3.17.52s1.32.28,1.66.33a4.24,4.24,0,0,1,.65.09,3.16,3.16,0,0,1,2.75,3.4v6.4H413.81v-6.4a3.17,3.17,0,0,1,2.67-3.4,4.8,4.8,0,0,1,.72-.09c.28,0,.84-.16,1.61-.33s1.88-.31,3.18-.52V70.89c-1.31-.22-2.42-.43-3.18-.57s-1.33-.23-1.61-.3a4.53,4.53,0,0,0-.72-.11,3.17,3.17,0,0,1-2.67-3.4V60.12h16.37a3.32,3.32,0,0,1,3.42,2.45l.87,4.12a34.72,34.72,0,0,1,3.08-3A16.58,16.58,0,0,1,441,61.39a15.8,15.8,0,0,1,3.92-1.59,17.07,17.07,0,0,1,4.57-.53,12.81,12.81,0,0,1,8.66,2.84,17.64,17.64,0,0,1,5.07,7.57,16.7,16.7,0,0,1,3.23-4.77,17.69,17.69,0,0,1,4.29-3.21,18.93,18.93,0,0,1,4.94-1.88,24.43,24.43,0,0,1,5.31-.55,22.67,22.67,0,0,1,8.18,1.36,15.7,15.7,0,0,1,6,4.18,17.47,17.47,0,0,1,3.77,6.62,29.18,29.18,0,0,1,1.27,9v24.75c1.31.21,2.4.44,3.17.52l1.6.34a3.08,3.08,0,0,1,.73.08A3.16,3.16,0,0,1,508.32,109.52Z" transform="translate(-30.82 -23.55)"/><path class="cls-1" d="M570.05,87.6a39.11,39.11,0,0,1-1.68,11.61,28.3,28.3,0,0,1-4.82,9.22,21.6,21.6,0,0,1-17.43,8.29,21.07,21.07,0,0,1-8-1.39,19.76,19.76,0,0,1-5.87-4v12.09c1.37.22,2.4.44,3.2.52s1.29.29,1.64.35.48,0,.65.07a3.16,3.16,0,0,1,2.74,3.41v6.39H510.68v-6.39a3.18,3.18,0,0,1,2.69-3.41c.16,0,.42,0,.7-.07l1.6-.35c.77-.09,1.88-.3,3.22-.52V70.89c-1.35-.21-2.45-.43-3.22-.57s-1.32-.23-1.6-.3a5.62,5.62,0,0,0-.7-.11,3.15,3.15,0,0,1-2.69-3.4V60.12h16.37a4.1,4.1,0,0,1,2.24.58,2.6,2.6,0,0,1,1.17,1.88l1.13,5.18a28.39,28.39,0,0,1,7.7-6.31,21.36,21.36,0,0,1,10.2-2.36A18.27,18.27,0,0,1,557.84,61a19,19,0,0,1,6.53,5.53,28,28,0,0,1,4.22,8.92A47.09,47.09,0,0,1,570.05,87.6Zm-13.79,0a38.16,38.16,0,0,0-.83-8.34,16.09,16.09,0,0,0-2.22-5.52,9,9,0,0,0-3.58-3,10.57,10.57,0,0,0-4.76-1,13.84,13.84,0,0,0-7.11,1.78,20.7,20.7,0,0,0-5.5,5v25a12.62,12.62,0,0,0,4.94,4,15.64,15.64,0,0,0,5.82,1.08,13.16,13.16,0,0,0,5.5-1.12,10.15,10.15,0,0,0,4.16-3.49,18,18,0,0,0,2.64-5.9A35.74,35.74,0,0,0,556.26,87.6Z" transform="translate(-30.82 -23.55)"/></svg>