<?xml version="1.0" encoding="utf-8"?>
<!-- Generator: Adobe Illustrator 17.0.0, SVG Export Plug-In . SVG Version: 6.00 Build 0)  -->
<!DOCTYPE svg PUBLIC "-//W3C//DTD SVG 1.1//EN" "http://www.w3.org/Graphics/SVG/1.1/DTD/svg11.dtd">
<svg version="1.1" id="Layer_1" xmlns="http://www.w3.org/2000/svg" xmlns:xlink="http://www.w3.org/1999/xlink" x="0px" y="0px"
	 width="201px" height="49px" viewBox="0 0 201 49" enable-background="new 0 0 201 49" xml:space="preserve">
<g>
	<path fill="#FF7040" d="M29.71,25.982c0,2.053-0.28,3.963-0.83,5.731c-0.537,1.732-1.335,3.264-2.379,4.562
		c-1.023,1.294-2.262,2.298-3.712,3.008c-1.454,0.733-3.073,1.087-4.899,1.087c-3.966,0-8.434-0.479-13.443-1.507v-8.619V5.369
		C3.772,5.269,3.205,5.158,2.783,5.077C2.361,5.029,2.084,4.975,1.91,4.943C1.719,4.912,1.585,4.887,1.514,4.87
		C0.625,4.684,0.173,4.137,0.173,3.19V0.031h4.274h6.597v15.747c1.098-1.147,2.325-2.09,3.69-2.751
		c1.389-0.702,2.98-1.038,4.834-1.038c1.483,0,2.873,0.293,4.109,0.906c1.238,0.618,2.313,1.529,3.227,2.697
		c0.875,1.204,1.581,2.665,2.087,4.378C29.457,21.717,29.71,23.732,29.71,25.982z M22.898,25.982c0-1.604-0.154-2.986-0.392-4.117
		c-0.26-1.096-0.633-2.019-1.11-2.728c-0.496-0.675-1.072-1.2-1.772-1.505c-0.689-0.344-1.466-0.495-2.349-0.495
		c-1.357,0-2.54,0.306-3.515,0.878c-0.957,0.573-1.877,1.392-2.716,2.448V34.83c1.804,0.324,3.566,0.486,5.346,0.486
		c0.99,0,1.902-0.184,2.7-0.553c0.799-0.37,1.491-0.939,2.043-1.728c0.549-0.757,0.984-1.731,1.304-2.911
		C22.719,28.968,22.898,27.561,22.898,25.982z"/>
	<path fill="#FF7040" d="M46.867,36.811v3.161h-4.034h-6.632h-4.037v-3.161c0-0.907,0.42-1.491,1.322-1.681
		c0.094-0.019,0.185-0.038,0.355-0.046c0.139-0.021,0.414-0.08,0.793-0.159c0.384-0.048,0.892-0.157,1.566-0.262V17.728
		c-0.676-0.101-1.185-0.212-1.566-0.278c-0.379-0.059-0.654-0.115-0.793-0.148c-0.172-0.033-0.263-0.055-0.355-0.057
		c-0.902-0.204-1.322-0.753-1.322-1.68V12.41h4.037h6.632v22.253c0.669,0.104,1.189,0.214,1.567,0.262
		c0.381,0.082,0.656,0.139,0.791,0.159c0.173,0.008,0.268,0.027,0.358,0.046C46.441,35.319,46.867,35.903,46.867,36.811z
		 M43.479,5.98c-0.236,0.518-0.561,0.959-0.938,1.328c-0.381,0.368-0.835,0.684-1.354,0.904c-0.513,0.214-1.054,0.327-1.674,0.327
		c-0.559,0-1.084-0.113-1.611-0.327c-0.494-0.221-0.932-0.536-1.334-0.904c-0.369-0.369-0.647-0.811-0.872-1.328
		c-0.225-0.493-0.356-1.036-0.356-1.601c0-0.583,0.132-1.165,0.356-1.664c0.225-0.538,0.503-0.99,0.872-1.357
		c0.402-0.37,0.84-0.688,1.334-0.908c0.525-0.216,1.051-0.325,1.611-0.325c0.62,0,1.161,0.109,1.674,0.325
		c0.521,0.222,0.975,0.538,1.354,0.908c0.377,0.367,0.701,0.818,0.938,1.357c0.228,0.499,0.334,1.081,0.334,1.664
		C43.814,4.943,43.707,5.486,43.479,5.98z"/>
	<path fill="#FF7040" d="M53.925,38.388c-1.288-1.367-1.934-3.233-1.934-5.608V17.384h-2.796c-0.346,0-0.654-0.136-0.903-0.354
		c-0.266-0.216-0.386-0.591-0.386-1.045v-2.638l4.414-0.722l1.391-7.54c0.074-0.347,0.239-0.635,0.494-0.831
		c0.246-0.197,0.592-0.273,0.979-0.273h3.433v8.655h7.221v4.751h-7.221v14.95c0,0.86,0.206,1.505,0.626,1.997
		c0.423,0.496,1.018,0.746,1.712,0.746c0.406,0,0.775-0.06,1.027-0.177c0.288-0.076,0.534-0.198,0.742-0.29
		c0.204-0.125,0.381-0.21,0.534-0.327c0.184-0.077,0.341-0.136,0.492-0.136c0.194,0,0.346,0.057,0.493,0.136
		c0.109,0.117,0.252,0.253,0.399,0.45l1.959,3.238c-0.947,0.8-2.063,1.405-3.313,1.813c-1.248,0.413-2.547,0.617-3.863,0.617
		C57.036,40.403,55.216,39.719,53.925,38.388z"/>
	<path fill="#FF7040" d="M91.277,35.877c-0.748,0.866-1.538,1.563-2.396,2.146c-0.861,0.601-1.721,1.053-2.654,1.414
		c-0.934,0.336-1.869,0.589-2.837,0.721c-1.01,0.171-1.97,0.216-2.939,0.216c-1.68,0-3.298-0.302-4.803-0.938
		c-1.496-0.637-2.784-1.582-3.912-2.791c-1.128-1.21-1.995-2.706-2.638-4.483c-0.655-1.743-1.003-3.777-1.003-6.024
		c0-2.012,0.303-3.887,0.874-5.624c0.572-1.736,1.427-3.237,2.565-4.502c1.14-1.264,2.518-2.244,4.175-2.967
		c1.658-0.702,3.572-1.055,5.745-1.055c2.207,0,5.082,0.637,8.654,1.975v8.497H89.88h-0.653h-2.222
		c-0.675,0-1.095-0.354-1.248-1.021c-0.059-0.431-0.225-1.735-0.432-3.884c-1.383-0.338-2.565-0.528-3.475-0.528
		c-1.18,0-2.193,0.213-3.075,0.635c-0.844,0.42-1.587,1.039-2.158,1.819c-0.577,0.778-1.009,1.745-1.308,2.847
		c-0.297,1.133-0.43,2.402-0.43,3.81c0,1.466,0.146,2.785,0.478,3.909c0.293,1.162,0.75,2.109,1.332,2.918
		c0.61,0.768,1.311,1.351,2.152,1.753c0.837,0.399,1.802,0.599,2.857,0.599c1.053,0,1.898-0.116,2.531-0.384
		c0.649-0.268,1.222-0.531,1.672-0.863c0.428-0.293,0.832-0.594,1.149-0.864c0.326-0.23,0.712-0.382,1.122-0.382
		c0.519,0,0.917,0.205,1.195,0.616L91.277,35.877z"/>
	<path fill="#FF7040" d="M120.342,36.764v3.152h-3.351h-0.709h-2.237c-0.636,0-1.121-0.08-1.476-0.267
		c-0.376-0.182-0.624-0.573-0.827-1.155l-0.58-1.938c-0.692,0.624-1.364,1.162-2.044,1.647c-0.673,0.453-1.372,0.873-2.069,1.186
		c-0.729,0.314-1.474,0.552-2.271,0.732c-0.812,0.161-1.701,0.221-2.704,0.221c-1.145,0-2.221-0.148-3.191-0.442
		c-1.006-0.336-1.848-0.817-2.531-1.445c-0.72-0.628-1.255-1.4-1.643-2.317c-0.4-0.947-0.613-2.046-0.613-3.28
		c0-1.042,0.276-2.065,0.839-3.075c0.534-1.009,1.454-1.939,2.722-2.754c1.266-0.813,2.951-1.502,5.051-2.024
		c2.1-0.56,4.717-0.834,7.838-0.834v-1.62c0-1.855-0.382-3.215-1.147-4.119c-0.803-0.902-1.909-1.355-3.393-1.355
		c-1.076,0-1.979,0.149-2.672,0.376c-0.729,0.253-1.347,0.547-1.886,0.841c-0.511,0.329-1.009,0.625-1.466,0.85
		c-0.428,0.257-0.915,0.405-1.474,0.405c-0.42,0-0.826-0.139-1.132-0.373c-0.341-0.236-0.569-0.5-0.766-0.865l-1.232-2.117
		c3.162-2.905,6.979-4.354,11.454-4.354c1.594,0,3.02,0.274,4.28,0.79c1.258,0.543,2.327,1.26,3.209,2.218
		c0.881,0.926,1.556,2.06,2.015,3.375c0.435,1.316,0.655,2.743,0.655,4.28v12.223c0.617,0.127,1.086,0.188,1.438,0.262
		c0.313,0.072,0.504,0.1,0.566,0.1C119.899,35.293,120.342,35.841,120.342,36.764z M110.545,28.232
		c-1.938,0-3.536,0.133-4.832,0.354c-1.303,0.25-2.34,0.58-3.118,0.95c-0.775,0.372-1.36,0.817-1.673,1.341
		c-0.314,0.481-0.51,1.054-0.51,1.642c0,1.159,0.366,1.996,1.035,2.519c0.689,0.484,1.599,0.74,2.716,0.74
		c0.65,0,1.274-0.059,1.872-0.177c0.562-0.11,1.086-0.304,1.613-0.544c0.518-0.255,0.987-0.575,1.47-0.928
		c0.484-0.351,0.934-0.778,1.427-1.287V28.232z"/>
	<path fill="#FF7040" d="M170.333,36.811v3.163H166.3h-6.635V22.44c0-1.771-0.377-3.095-1.134-3.961
		c-0.792-0.895-1.892-1.342-3.375-1.342c-0.689,0-1.318,0.106-1.887,0.337c-0.596,0.236-1.098,0.594-1.537,1.027
		c-0.441,0.422-0.77,0.988-1.028,1.657c-0.26,0.649-0.367,1.414-0.367,2.28v12.224c0.657,0.106,1.186,0.214,1.565,0.258
		c0.379,0.083,0.654,0.139,0.789,0.163c0.175,0.004,0.269,0.027,0.36,0.046c0.882,0.188,1.315,0.773,1.315,1.68v3.162h-4.027h-6.667
		V22.44c0-1.84-0.362-3.196-1.085-4.039c-0.762-0.843-1.864-1.263-3.305-1.263c-0.928,0-1.825,0.239-2.653,0.726
		c-0.83,0.448-1.593,1.1-2.318,1.919v14.881c0.675,0.104,1.181,0.214,1.566,0.258c0.412,0.083,0.65,0.139,0.822,0.163
		c0.138,0.004,0.23,0.027,0.32,0.044c0.903,0.188,1.357,0.771,1.357,1.68v3.162h-4.063h-6.627h-4.038v-3.162
		c-0.003-0.904,0.451-1.491,1.316-1.68c0.093-0.017,0.2-0.04,0.356-0.044c0.138-0.024,0.414-0.08,0.794-0.163
		c0.38-0.044,0.928-0.153,1.571-0.258V17.728c-0.645-0.104-1.194-0.213-1.571-0.278c-0.38-0.063-0.656-0.118-0.794-0.151
		c-0.156-0.031-0.266-0.052-0.356-0.054c-0.865-0.207-1.319-0.753-1.316-1.68V12.41h4.038h4.047c0.861,0,1.414,0.41,1.69,1.211
		l0.427,2.035c0.496-0.522,0.977-1.028,1.524-1.481c0.509-0.453,1.098-0.833,1.689-1.138c0.591-0.344,1.236-0.604,1.935-0.788
		c0.661-0.188,1.436-0.26,2.257-0.26c1.742,0,3.155,0.443,4.279,1.401c1.094,0.921,1.927,2.174,2.505,3.743
		c0.429-0.927,0.947-1.701,1.594-2.359c0.643-0.657,1.36-1.174,2.12-1.583c0.754-0.41,1.563-0.732,2.439-0.93
		c0.87-0.196,1.745-0.274,2.627-0.274c1.519,0,2.85,0.218,4.038,0.675c1.179,0.473,2.159,1.165,2.956,2.063
		c0.821,0.877,1.443,1.977,1.861,3.271c0.42,1.298,0.63,2.777,0.63,4.44v12.228c0.644,0.101,1.185,0.214,1.564,0.255
		c0.38,0.083,0.656,0.139,0.79,0.166c0.173,0.003,0.268,0.024,0.359,0.042C169.889,35.319,170.333,35.903,170.333,36.811z"/>
	<path fill="#FF7040" d="M200.827,25.982c0,2.053-0.28,3.964-0.828,5.734c-0.541,1.731-1.355,3.263-2.381,4.559
		c-1.023,1.294-2.26,2.298-3.713,3.008c-1.456,0.736-3.073,1.087-4.9,1.087c-1.529,0-2.858-0.243-3.942-0.688
		c-1.087-0.484-2.04-1.147-2.901-1.992v5.975c0.679,0.104,1.187,0.213,1.583,0.257c0.398,0.084,0.637,0.139,0.809,0.173
		c0.138,0.021,0.239,0.021,0.321,0.031c0.904,0.196,1.355,0.774,1.355,1.684v3.159h-4.068h-6.607h-4.058V45.81
		c0-0.904,0.449-1.487,1.332-1.684c0.078-0.011,0.206-0.011,0.344-0.031c0.136-0.034,0.41-0.089,0.79-0.173
		c0.381-0.045,0.93-0.152,1.592-0.257V17.731c-0.666-0.104-1.211-0.213-1.592-0.281c-0.38-0.059-0.654-0.115-0.79-0.148
		c-0.138-0.031-0.27-0.053-0.344-0.057c-0.883-0.204-1.332-0.75-1.332-1.68V12.41h4.058h4.028c0.43,0,0.805,0.092,1.107,0.286
		c0.319,0.195,0.514,0.518,0.582,0.928l0.556,2.56c1.081-1.273,2.354-2.301,3.803-3.118c1.452-0.777,3.137-1.167,5.041-1.167
		c1.497,0,2.887,0.307,4.124,0.933c1.239,0.634,2.313,1.535,3.225,2.733c0.877,1.197,1.584,2.666,2.086,4.404
		C200.574,21.715,200.827,23.737,200.827,25.982z M194.015,25.982c0-1.604-0.155-2.982-0.411-4.117
		c-0.242-1.096-0.617-2.019-1.096-2.728c-0.492-0.671-1.069-1.2-1.768-1.505c-0.692-0.342-1.47-0.495-2.351-0.495
		c-1.355,0-2.543,0.306-3.512,0.879c-0.961,0.572-1.88,1.391-2.716,2.45v12.354c0.743,0.949,1.583,1.604,2.437,1.961
		c0.891,0.357,1.861,0.536,2.875,0.536c0.99,0,1.909-0.186,2.716-0.555c0.807-0.366,1.507-0.939,2.056-1.726
		c0.552-0.757,0.985-1.733,1.306-2.911C193.833,28.968,194.015,27.563,194.015,25.982z"/>
</g>
</svg>
