<?xml version="1.0" encoding="utf-8"?>
<!-- Generator: Adobe Illustrator 23.0.1, SVG Export Plug-In . SVG Version: 6.00 Build 0)  -->
<svg version="1.1" id="Layer_1" xmlns="http://www.w3.org/2000/svg" xmlns:xlink="http://www.w3.org/1999/xlink" x="0px" y="0px"
	 viewBox="0 0 1340 760" style="enable-background:new 0 0 1340 760;" xml:space="preserve">
<style type="text/css">
	.st0{fill:#558EA8;}
	.st1{fill:#345867;}
	.st2{clip-path:url(#SVGID_2_);}
	.st3{clip-path:url(#SVGID_4_);}
	.st4{fill:#A68F7E;}
	.st5{fill:#816C61;}
	.st6{clip-path:url(#SVGID_6_);}
	.st7{clip-path:url(#SVGID_8_);}
	.st8{fill:#345767;}
	.st9{clip-path:url(#SVGID_10_);}
	.st10{clip-path:url(#SVGID_12_);}
</style>
<title>TentTreesHills</title>
<path class="st0" d="M0.6,637.1c0,0,125.1-26.9,314.5,17c189.4,43.9,222.7,16.8,355.1-7c132-23.7,224.4-73.4,670.5,18.7v223.4H0
	L0.6,637.1z"/>
<path class="st1" d="M-0.1,669.9c0,0,92.9-42,314.1,12.4s481.5-13,481.5-13s224.4-77.8,545.2,2.2v217.6H-0.6L-0.1,669.9z"/>
<g>
	<g>
		<defs>
			<rect id="SVGID_1_" x="513.7" y="633.1" width="88.7" height="82.3"/>
		</defs>
		<clipPath id="SVGID_2_">
			<use xlink:href="#SVGID_1_"  style="overflow:visible;"/>
		</clipPath>
		<g class="st2">
			<g>
				<defs>
					<rect id="SVGID_3_" x="513.7" y="633.1" width="88.7" height="82.3"/>
				</defs>
				<clipPath id="SVGID_4_">
					<use xlink:href="#SVGID_3_"  style="overflow:visible;"/>
				</clipPath>
				<g class="st3">
					<path class="st4" d="M571.4,633.6l0.1-0.5h0.2c0.2,1,0.4,2.1,0.7,3.2c0.9,3.8,1.8,7.6,2.7,11.4c0.9,3.8,1.8,7.6,2.8,11.4
						c2,7.3,4.3,14.5,7,21.6c1.7,4.3,3.5,8.6,5.4,12.8c2.6,5.7,5.9,11,9.9,15.8c0.7,0.9,1.5,1.7,2.3,2.6c-0.7,0-1.3,0-2,0
						c-5.7-0.4-11.5-0.8-17.2-1.2l-17.2-1.2c-5.1-0.4-10.1-0.7-15.2-1.1c-0.7,0-1.3-0.4-1.7-1c-0.6-1.2-1.3-2.3-2-3.4
						c0-0.1,0-0.2,0.1-0.3c1.4-2.7,2.9-5.3,4.1-8.1c2.2-4.7,4.3-9.4,6.2-14.2c2.2-5.4,4.4-10.9,6.2-16.4c1.9-5.6,3.5-11.4,5-17.1
						c1-4.1,1.7-8.3,2.4-12.5C571.5,634.8,571.5,634.2,571.4,633.6"/>
					<path class="st5" d="M571.4,633.6c0.1,0.6,0.1,1.2,0,1.7c-0.8,4.2-1.4,8.4-2.4,12.5c-1.5,5.8-3.1,11.5-5,17.1
						c-1.9,5.5-4,11-6.2,16.4c-1.9,4.8-4.1,9.5-6.2,14.2c-1.3,2.8-2.8,5.4-4.1,8.1c0,0.1-0.1,0.2-0.1,0.3c-0.9,1.2-1.7,2.5-2.6,3.7
						c-1.7,2.4-3.5,4.7-5.3,7c-0.3,0.5-1,0.7-1.5,0.5c-8-1.8-16-3.5-24.1-5.2c0.1-0.1,0.2-0.3,0.3-0.4c3.7-3.2,6.7-7.1,9.5-11.1
						c4-5.5,7.3-11.4,9.8-17.7c0.8-2,1.5-4,2.3-6c0.2-0.6,0.6-1.2,1.2-1.5c3.7-2.4,7.2-5.1,10.4-8.1c3.9-3.5,7.5-7.3,10.7-11.4
						c2.6-3.4,5.3-6.8,7.7-10.3C567.9,640.4,569.6,637,571.4,633.6"/>
				</g>
			</g>
		</g>
	</g>
	<g>
		<defs>
			<rect id="SVGID_5_" x="345.4" y="627.5" width="195.9" height="112.2"/>
		</defs>
		<clipPath id="SVGID_6_">
			<use xlink:href="#SVGID_5_"  style="overflow:visible;"/>
		</clipPath>
		<g class="st6">
			<g>
				<defs>
					<rect id="SVGID_7_" x="345.4" y="627.5" width="195.9" height="112.2"/>
				</defs>
				<clipPath id="SVGID_8_">
					<use xlink:href="#SVGID_7_"  style="overflow:visible;"/>
				</clipPath>
				<g class="st7">
					<path class="st5" d="M457.8,723.3c-0.4,0.3-0.7,0.7-1.1,1c-2.6,3-5.2,6.1-7.9,9c-1.9,2.1-3.9,4-5.9,6c-0.3,0.2-0.6,0.4-0.9,0.3
						c-4.4-0.3-8.8-0.7-13.2-1.1c-2.9-0.2-5.9-0.5-8.8-0.8l-17.6-1.5c-5.2-0.5-10.4-0.9-15.5-1.4c-5.7-0.5-11.3-1-17-1.5
						c-3.5-0.3-7-0.6-10.5-0.9c-4.5-0.4-9-0.8-13.5-1.2c-0.2,0-0.4-0.1-0.5-0.3c0.2-0.1,0.3-0.1,0.4-0.2
						c7.5-5.2,14.3-11.4,20.8-17.8c3.7-3.7,7.4-7.4,10.5-11.6c4-5.2,7.6-10.6,10.8-16.2c2.9-5.2,5.4-10.6,7.4-16.1
						c0.1-0.4,0.5-0.6,0.9-0.5c6.2-0.1,12.3-0.5,18.3-1.8c5.7-1.2,11.4-2.8,17.1-4.4c7.7-2.2,15.2-5.2,22.6-8.4
						c8.4-3.6,16.7-7.7,24.4-12.6c4.2-2.6,8.3-5.3,12.4-8.1c2.3-1.6,4.3-3.5,6.5-5.3l0.4-0.3v1.1c-0.1,0.1-0.2,0.2-0.3,0.3
						c-0.3,1.4-0.5,2.8-0.7,4.2c-0.9,4.8-1.8,9.7-2.9,14.5c-1.2,4.9-2.6,9.8-4,14.7c-0.9,3.1-1.8,6.3-2.9,9.3
						c-1.5,4.3-3.3,8.5-5,12.6c-1.4,3.2-2.8,6.5-4.4,9.6c-1.6,3.1-3.6,6.1-5.5,9.1c-2.2,3.4-4.5,6.8-6.8,10.1
						c-1.7,2.5-3.6,4.9-5.4,7.3L457.8,723.3 M444.1,737.4C444.1,737.4,444.1,737.3,444.1,737.4c-0.1-0.1-0.1-0.1-0.2,0
						S444,737.4,444.1,737.4L444.1,737.4"/>
					<path class="st4" d="M457.8,723.3l2.2-2.9c1.8-2.4,3.6-4.8,5.4-7.3c2.3-3.3,4.6-6.7,6.8-10.1c1.9-3,3.8-6,5.5-9.1
						c1.7-3.1,3.1-6.3,4.4-9.6c1.8-4.2,3.5-8.4,5-12.6c1.1-3.1,2.1-6.2,2.9-9.3c1.4-4.9,2.8-9.8,4-14.7c1.1-4.8,2-9.7,2.9-14.5
						c0.3-1.4,0.5-2.8,0.7-4.2c0-0.1,0.2-0.2,0.3-0.3c0.2,1.3,0.4,2.5,0.6,3.8c0.8,8,2,15.9,3.7,23.7c1.4,6.9,3.2,13.7,5.5,20.4
						c2.2,6.4,4.7,12.8,8,18.7c4.1,7.4,8.7,14.5,14.4,20.9c1.6,1.7,3.3,3.2,5.1,4.6c2,1.6,4,3.1,6.1,4.8c-0.7,0-1.2-0.1-1.8-0.1
						c-3.5-0.1-6.9-0.1-10.4-0.2c-4.2-0.1-8.3-0.2-12.5-0.3l-10.9-0.3l-11.9-0.3l-11.2-0.3l-11.5-0.3l-11.5-0.3
						C459.2,723.5,458.5,723.4,457.8,723.3"/>
					<path class="st4" d="M444.1,737.4L444.1,737.4c-0.1,0-0.1,0-0.2,0C443.9,737.3,444,737.3,444.1,737.4
						C444.1,737.3,444.1,737.4,444.1,737.4"/>
				</g>
			</g>
		</g>
	</g>
	<polygon class="st8" points="479.5,723.1 479.5,727.1 475.5,727.1 475.5,717 477.5,717 477.5,723.1 479.5,723.1 	"/>
	<path class="st8" d="M515.2,726.3v4.4h-6.7v-4.4l0,0h2.2v-11.1h2.2v11.1L515.2,726.3L515.2,726.3z"/>
	<path class="st8" d="M516.2,721.9v4h-2l0,0v-4H516.2L516.2,721.9z"/>
	<polyline class="st8" points="516.2,721.9 516.2,719.9 518.2,719.9 518.2,721.9 516.2,721.9 516.2,721.9 	"/>
	<polygon class="st8" points="479.5,723.1 479.5,721.1 481.5,721.1 481.5,723.1 479.5,723.1 	"/>
	<polygon class="st8" points="506.3,724 504.1,724 504.1,721.9 506.3,721.9 506.3,724.1 	"/>
	<path class="st8" d="M506.3,724.1h2.2v2.2l0,0h-2.2V724.1z"/>
</g>
<g>
	<g>
		<defs>
			<rect id="SVGID_9_" x="784.3" y="629.4" width="214.8" height="112"/>
		</defs>
		<clipPath id="SVGID_10_">
			<use xlink:href="#SVGID_9_"  style="overflow:visible;"/>
		</clipPath>
		<g class="st9">
			<g>
				<defs>
					<rect id="SVGID_11_" x="784.3" y="629.4" width="214.8" height="112"/>
				</defs>
				<clipPath id="SVGID_12_">
					<use xlink:href="#SVGID_11_"  style="overflow:visible;"/>
				</clipPath>
				<g class="st10">
					<path class="st5" d="M836.4,629.4c0.1,0,0.3,0.1,0.4,0.2c4.8,2.8,9.9,5.1,15.2,6.8c4.9,1.6,9.8,2.8,14.8,4
						c4.1,1,8.3,2,12.5,2.7c5.4,0.9,10.9,1.6,16.4,2.3c4.7,0.6,9.5,1.1,14.2,1.3c4.6,0.3,9.2,0.3,13.8,0.3c3.5,0,7-0.2,10.5-0.4
						c0.3,0,0.5,0,0.7,0.4c2,4.5,4.8,8.5,7.5,12.5c1.9,2.7,3.6,5.5,5.5,8.2c2.9,4.2,6.1,8.2,9.4,12.1c2.9,3.5,6,6.9,9.3,10.1
						c5.7,5.4,11.6,10.6,18.4,14.6c4.1,2.4,8.4,4.6,12.6,7c0.4,0.2,0.9,0.4,1.5,0.7c-0.6,0.2-1.1,0.3-1.5,0.5l-27.9,7.9
						c-2.3,0.6-4.5,1.3-6.8,1.9c-4.8,1.4-9.7,2.8-14.5,4.2c-4.5,1.3-9,2.5-13.5,3.7l-28.8,7.8c-4,1.1-8,2.2-12,3.3
						c-0.6,0.2-1.2,0.1-1.7-0.3c-3.7-2.4-7-5.4-10.2-8.4c-4.4-4.2-8.1-8.9-11.8-13.7c-2.5-3.2-4.8-6.6-6.8-10.1
						c-0.1-0.2-0.2-0.3-0.3-0.5c-0.2-0.4-0.4-0.8-0.6-1.2c-1.8-3.3-3.8-6.5-5.5-9.8c-1.1-2-2-4.2-3-6.3c-1.5-3.5-3-7-4.4-10.5
						c-1-2.6-2-5.2-3-7.8c-0.9-2.6-1.9-5.2-2.7-7.8c-1.3-4.2-2.4-8.4-3.6-12.5c-0.6-2-1.2-4-1.6-6c-0.6-2.5-1-5.1-1.4-7.6
						C836.9,635.9,836.5,632.7,836.4,629.4"/>
					<path class="st4" d="M836.4,629.4c0.1,3.2,0.5,6.4,1.1,9.6c0.4,2.5,0.9,5.1,1.4,7.6c0.4,2,1,4,1.6,6c1.2,4.2,2.3,8.4,3.6,12.5
						c0.8,2.6,1.7,5.2,2.7,7.8c0.9,2.6,1.9,5.2,3,7.8c1.4,3.5,2.9,7,4.4,10.5c0.9,2.1,1.9,4.2,3,6.3c1.8,3.3,3.7,6.5,5.5,9.8
						c0.2,0.4,0.4,0.8,0.6,1.2c-1.4,0.2-2.8,0.3-4.2,0.5c-3.5,0.4-7,0.7-10.5,1.1l-9.2,0.9l-10.6,1.1l-10.2,1l-13.1,1.4
						c-3.4,0.4-6.8,0.7-10.2,1c-3.2,0.3-6.3,0.6-9.5,0.9c-0.5,0-1,0-1.5,0c1.3-0.7,2.6-1.3,3.9-2c4.4-2.3,8.2-5.3,11.9-8.5
						c5-4.4,9.3-9.5,12.9-15.1c2.6-4,5.2-8.1,7.2-12.5c2.6-5.5,5-11,7-16.7c1.3-3.8,2.7-7.5,3.9-11.4c1.1-3.7,1.9-7.4,2.8-11.1
						c0.7-3,1.3-6,2-9C836.1,629.8,836.2,629.6,836.4,629.4"/>
				</g>
			</g>
		</g>
	</g>
	<path class="st8" d="M912.9,734.4c0,1.2,0,2.4,0,3.6h-3.6c0-1.8,0-3.6,0-5.3l0,0h1.8v1.8L912.9,734.4L912.9,734.4z"/>
	<rect x="817.3" y="703.4" class="st8" width="1.8" height="3.5"/>
	<path class="st8" d="M945.4,725.7h-1.8l0,0v-1.8h1.8L945.4,725.7z"/>
	<path class="st8" d="M817.4,710.6h1.8V707h1.8v3.5h1.8l0,0v3.5h-5.3L817.4,710.6L817.4,710.6"/>
	<polygon class="st8" points="938.3,727.5 940.1,727.5 940.1,722.2 941.8,722.2 941.8,725.7 943.6,725.7 943.6,725.7 943.6,729.2 
		938.3,729.2 938.3,727.4 	"/>
	<path class="st8" d="M907.6,729.1h1.8v3.6l0,0h-1.8V729.1z"/>
	<polygon class="st8" points="912.9,734.4 912.9,730.9 914.6,730.9 914.6,734.4 912.9,734.4 	"/>
	<polygon class="st8" points="815.7,708.8 813.9,708.8 813.9,707 815.7,707 815.7,708.8 	"/>
	<polygon class="st8" points="815.7,708.8 817.4,708.8 817.4,710.6 817.5,710.5 815.7,710.5 815.7,708.8 	"/>
	<polygon class="st8" points="822.8,710.6 822.8,708.8 824.5,708.8 824.5,710.5 822.8,710.5 	"/>
	<polygon class="st8" points="938.3,727.4 936.6,727.4 936.6,725.7 938.3,725.7 938.3,727.5 	"/>
	<polygon class="st8" points="907.6,729.1 905.8,729.1 905.8,727.4 907.5,727.4 907.5,729.1 	"/>
</g>
<path class="st1" d="M1262.9,433.7h6V445h6.1v5.5h5.8v11.2h6v5.6h6v5.5h5.8v5.5h5.8v11.1h-5.8v-5.5h-5.7v5.4h5.8v16.9h6.1v5.5h5.8
	v5.6h5.8v10.9h-6v-5.3h-5.8v5.5h-5.8v5.7h6v11.1h5.8v5.6h6v5.7h5.9v11h5.7v5.7h-5.6v16.9h5.9v5.4h5.9v5.5h5.9v11.2h-6.1v5.7h-5.7
	v5.5h5.9v5.5h5.9c0,14.4,0,28.8-0.1,43.3c0,0.7-1.3,1.9-2,1.9c-42.4,0.1-84.8,0.1-127.2-0.2c-0.7,0-1.4-3.8-2.1-5.9h6.1v-16.9h5.7
	v-5.4h-5.7v-11.2h5.9v-5.6h5.9v-11h5.7v-11h-5.9v5.2h-11.7v-11h5.9v-5.7h6V590h5.8v-22.3h6V562h5.9v-11.1h5.8v-5.4h-5.8v5.5h-11.8
	v-11.3h6v-5.6h5.8V523h5.8V512h-6v5.5h-5.8v5.3h-5.8v-11.1h5.6v-5.6h-5.6v-5.5h5.9v-11.2h6v-5.6h5.9v-16.6h5.9V456h5.9L1262.9,433.7
	z"/>
<path class="st1" d="M1219.8,518.1h-3.6v7.2h-3.7v3.5h-3.5v7.1h-3.6v3.6h-3.6v3.5h-3.5v3.5h-3.4v7.1h3.5v-3.5h3.4v3.4h-3.5v10.8
	h-3.6v3.5h-3.5v3.5h-3.4v7h3.5v-3.4h3.5v3.5h3.4v3.6h-3.5v7.1h-3.5v3.5h-3.6v3.6h-3.5v7.1h-3.4v3.6h3.4v10.7h-3.5v3.5h-3.5v3.5h-3.5
	v7.2h3.7v3.7h3.4v3.5h-3.5v3.5h-3.5c0,9.2,0,18.4,0.1,27.6c0.2,0.6,0.6,1.1,1.2,1.2c25.3,0.1,50.6,0.1,75.8-0.1
	c0.4,0,0.8-2.4,1.2-3.8h-3.7v-10.8h-3.4v-3.5h3.4v-7.2h-3.5v-3.6h-3.5v-7.1h-3.4v-7h3.5v3.3h7v-7h-3.5v-3.6h-3.6v-3.5h-3.5v-14.2
	h-3.6v-3.6h-3.5V593h-3.5v-3.4h3.4v3.5h7v-7.3h-3.5v-3.5h-3.5v-7.1h-3.4v-7h3.5v3.5h3.5v3.4h3.4V568h-3.3v-3.6h3.3v-3.5h-3.5v-7.2
	h-3.5v-3.6h-3.5v-10.6h-3.5v-7.2h-3.5L1219.8,518.1z"/>
<path class="st1" d="M68.7,461h-5.3v10H58v4.9h-5.2v9.8h-5.4v5h-5.4v4.9H37v4.9h-5.1v9.9H37v-4.8h5.1v4.8H37v15h-5.4v4.9h-5.2v4.9
	h-5.1v9.7h5.3v-4.7h5.2v4.9h5.1v5h-5.3v9.9h-5.2v4.9H21v5h-5.3v9.8h-5.1v5h5v14.9h-5.2v4.9H5.2v4.9H0v9.9h5.4v5.1h5v4.8H5.2v4.9H0
	c0,12.8,0,25.5,0.1,38.3c0,0.6,1.2,1.7,1.8,1.7c37.6,0.1,75.1,0.1,112.6-0.2c0.6,0,1.2-3.4,1.9-5.2H111v-15h-5.1v-4.8h5v-9.9h-5.3
	v-5h-5.3v-9.8h-5v-9.7h5.3v4.6H111v-9.7h-5.2v-5h-5.4v-4.9h-5.2v-19.7h-5.3v-5h-5.2v-9.8h-5.2V560h5.1v4.8H95v-10h-5.3v-4.9h-5.2
	V540h-5.1v-9.7h5.3v4.9h5.1v4.7H95v-9.9h-4.9v-5h5v-4.8h-5.2v-9.9h-5.3v-5h-5.2v-14.7H74v-9.9h-5.2L68.7,461z"/>
</svg>
