<?xml version="1.0" encoding="utf-8"?>
<!-- Generator: Adobe Illustrator 23.0.1, SVG Export Plug-In . SVG Version: 6.00 Build 0)  -->
<svg version="1.1" id="Layer_1" xmlns="http://www.w3.org/2000/svg" xmlns:xlink="http://www.w3.org/1999/xlink" x="0px" y="0px"
	 viewBox="0 0 1340 760" style="enable-background:new 0 0 1340 760;" xml:space="preserve">
<style type="text/css">
	.st0{fill:#558EA8;}
	.st1{fill:#345867;}
	.st2{clip-path:url(#SVGID_2_);}
	.st3{clip-path:url(#SVGID_4_);}
	.st4{fill:#A68F7E;}
	.st5{fill:#816C61;}
	.st6{clip-path:url(#SVGID_6_);}
	.st7{clip-path:url(#SVGID_8_);}
	.st8{fill:#345767;}
	.st9{clip-path:url(#SVGID_10_);}
	.st10{clip-path:url(#SVGID_12_);}
</style>
<title>TentTreesHills</title>
<path class="st0" d="M-0.2,636.5c0,0,43.9-21.9,110.5,13.9s78.2,13.7,124.7-5.7c46.4-19.4,78.8-59.8,235.6,15.2V842h-471L-0.2,636.5
	z"/>
<path class="st1" d="M-0.4,663.3c0,0,32.7-34.3,110.4,10.1c77.7,44.4,169.1-10.6,169.1-10.6s78.8-63.4,191.5,1.8V842H-0.6
	L-0.4,663.3z"/>
<path class="st1" d="M415,505.3h4.3v8.1h4.4v3.9h4.2v8h4.3v4h4.3v4h4.2v4h4.1v8h-4.2v-3.9h-4.1v3.9h4.2v12.1h4.4v4h4.2v4h4.1v7.8
	h-4.3v-3.8H445v3.9h-4.1v4.1h4.3v8h4.2v4h4.3v4.1h4.3v7.9h4.1v4.1h-4v12.1h4.2v3.9h4.3v4h4.2v8h-4.4v4.1h-4.1v3.9h4.2v4h4.2
	c0,10.3,0,20.7-0.1,31c0,0.5-0.9,1.3-1.4,1.3c-30.4,0.1-60.8,0.1-91.2-0.1c-0.5,0-1-2.8-1.5-4.2h4.4v-12.1h4.1v-3.9h-4.1v-8.1h4.3
	v-4h4.3v-7.9h4.1v-7.9h-4.3v3.7h-8.4v-7.9h4.2v-4.1h4.3v-4h4.2v-16h4.3v-4h4.2v-8h4.2v-3.9h-4.1v3.9h-8.5v-8.1h4.3v-4h4.2v-8h4.1
	v-7.8h-4.3v3.9h-4.2v3.8h-4.1v-8h4v-4h-4v-3.9h4.2v-8.1h4.3v-4h4.3v-11.9h4.3v-8.1h4.2L415,505.3z"/>
<path class="st1" d="M384.1,565.8h-2.6v5.2h-2.6v2.5h-2.5v5.1h-2.6v2.6h-2.6v2.5h-2.5v2.5h-2.5v5.1h2.5v-2.5h2.5v2.5h-2.5v7.7h-2.6
	v2.5h-2.5v2.5h-2.5v5h2.5v-2.4h2.5v2.5h2.5v2.6h-2.5v5.1h-2.5v2.5H361v2.6h-2.5v5.1h-2.4v2.6h2.4v7.7H356v2.5h-2.5v2.5h-2.5v5.1h2.6
	v2.6h2.4v2.5h-2.5v2.5h-2.5c0,6.6,0,13.2,0,19.8c0.1,0.4,0.4,0.8,0.9,0.9c18.1,0,36.3,0.1,54.4-0.1c0.3,0,0.6-1.7,0.9-2.7h-2.6v-7.8
	H402V663h2.4v-5.1h-2.5v-2.6h-2.5v-5.1h-2.4v-5h2.5v2.4h5v-5h-2.5v-2.6h-2.6v-2.5h-2.5v-10.2h-2.6v-2.6h-2.5v-5.1h-2.5v-2.4h2.4v2.5
	h5v-5.2h-2.5v-2.5h-2.5v-5.1h-2.5v-5h2.5v2.5h2.5v2.5h2.5v-5.1h-2.4V599h2.4v-2.5h-2.5v-5.1h-2.5v-2.6h-2.5v-7.6h-2.5V576h-2.5
	L384.1,565.8z"/>
<path class="st1" d="M49.9,519.3h-3.9v7.3h-3.9v3.6h-3.8v7.2h-3.9v3.6h-3.9v3.6h-3.8v3.6h-3.7v7.2h3.7v-3.5h3.7v3.5h-3.7V566h-3.9
	v3.6h-3.7v3.6h-3.7v7h3.8v-3.4h3.8v3.5h3.7v3.6h-3.8v7.2h-3.8v3.6h-3.9v3.6h-3.8v7.1H7.8v3.6h3.6v10.8H7.6v3.5H3.8v3.6H0v7.2h3.9
	v3.7h3.7v3.5H3.8v3.6H0c0,9.3,0,18.5,0.1,27.8c0,0.4,0.8,1.2,1.3,1.2c27.3,0.1,54.5,0.1,81.8-0.1c0.5,0,0.9-2.5,1.3-3.8h-3.9v-10.9
	h-3.7v-3.5h3.6v-7.2h-3.8v-3.6h-3.8v-7.1h-3.7v-7.1h3.8v3.3h7.5V627h-3.8v-3.6h-3.9v-3.6h-3.7v-14.3h-3.9v-3.6h-3.8v-7.1h-3.8v-3.5
	h3.7v3.5H69v-7.3h-3.8v-3.6h-3.7v-7.2h-3.7v-7h3.8v3.5h3.7v3.4H69v-7.2h-3.6v-3.6H69v-3.5h-3.8v-7.2h-3.9v-3.6h-3.8v-10.7h-3.8v-7.2
	h-3.8L49.9,519.3z"/>
<g>
	<g>
		<defs>
			<rect id="SVGID_1_" x="167.3" y="656.2" width="54.2" height="50.2"/>
		</defs>
		<clipPath id="SVGID_2_">
			<use xlink:href="#SVGID_1_"  style="overflow:visible;"/>
		</clipPath>
		<g class="st2">
			<g>
				<defs>
					<rect id="SVGID_3_" x="167.3" y="656.2" width="54.2" height="50.2"/>
				</defs>
				<clipPath id="SVGID_4_">
					<use xlink:href="#SVGID_3_"  style="overflow:visible;"/>
				</clipPath>
				<g class="st3">
					<path class="st4" d="M202.5,656.5l0.1-0.3h0.1c0.1,0.6,0.3,1.3,0.4,1.9c0.5,2.3,1.1,4.7,1.6,7c0.6,2.3,1.1,4.7,1.7,7
						c1.2,4.5,2.6,8.9,4.3,13.2c1,2.6,2.1,5.2,3.3,7.8c1.6,3.5,3.6,6.7,6.1,9.6c0.4,0.5,0.9,1,1.4,1.6c-0.4,0-0.8,0-1.2,0
						c-3.5-0.2-7-0.5-10.5-0.7l-10.5-0.7c-3.1-0.2-6.2-0.4-9.3-0.6c-0.4,0-0.8-0.2-1-0.6c-0.4-0.7-0.8-1.4-1.2-2.1
						c0-0.1,0-0.1,0.1-0.2c0.8-1.6,1.8-3.3,2.5-4.9c1.3-2.9,2.6-5.8,3.8-8.7c1.3-3.3,2.7-6.6,3.8-10c1.2-3.4,2.2-6.9,3.1-10.5
						c0.6-2.5,1-5.1,1.5-7.6C202.5,657.2,202.5,656.8,202.5,656.5"/>
					<path class="st5" d="M202.5,656.5c0,0.4,0,0.7,0,1.1c-0.5,2.6-0.8,5.1-1.5,7.6c-0.9,3.5-1.9,7-3.1,10.5
						c-1.1,3.4-2.5,6.7-3.8,10c-1.2,2.9-2.5,5.8-3.8,8.7c-0.8,1.7-1.7,3.3-2.5,4.9c0,0.1,0,0.1-0.1,0.2c-0.5,0.8-1,1.5-1.6,2.3
						c-1.1,1.4-2.2,2.9-3.2,4.3c-0.2,0.3-0.6,0.4-0.9,0.3c-4.9-1.1-9.8-2.1-14.7-3.2c0.1-0.1,0.1-0.2,0.2-0.3c2.3-2,4.1-4.3,5.8-6.8
						c2.4-3.4,4.4-7,6-10.8c0.5-1.2,0.9-2.4,1.4-3.6c0.1-0.4,0.4-0.7,0.7-0.9c2.3-1.5,4.4-3.1,6.4-4.9c2.4-2.1,4.6-4.5,6.5-7
						c1.6-2.1,3.3-4.1,4.7-6.3C200.4,660.6,201.4,658.5,202.5,656.5"/>
				</g>
			</g>
		</g>
	</g>
	<g>
		<defs>
			<rect id="SVGID_5_" x="64.5" y="652.8" width="119.6" height="68.5"/>
		</defs>
		<clipPath id="SVGID_6_">
			<use xlink:href="#SVGID_5_"  style="overflow:visible;"/>
		</clipPath>
		<g class="st6">
			<g>
				<defs>
					<rect id="SVGID_7_" x="64.5" y="652.8" width="119.6" height="68.5"/>
				</defs>
				<clipPath id="SVGID_8_">
					<use xlink:href="#SVGID_7_"  style="overflow:visible;"/>
				</clipPath>
				<g class="st7">
					<path class="st5" d="M133.2,711.2c-0.2,0.2-0.5,0.4-0.7,0.6c-1.6,1.8-3.2,3.7-4.8,5.5c-1.1,1.3-2.4,2.5-3.6,3.7
						c-0.2,0.1-0.4,0.2-0.6,0.2c-2.7-0.2-5.4-0.4-8.1-0.7c-1.8-0.2-3.6-0.3-5.4-0.5l-10.7-0.9c-3.2-0.3-6.3-0.5-9.5-0.8
						c-3.5-0.3-6.9-0.6-10.4-0.9c-2.1-0.2-4.3-0.4-6.4-0.6c-2.7-0.2-5.5-0.5-8.2-0.7c-0.1,0-0.2-0.1-0.3-0.2c0.1,0,0.2-0.1,0.3-0.1
						c4.6-3.2,8.7-6.9,12.7-10.9c2.3-2.3,4.5-4.5,6.4-7.1c2.4-3.2,4.6-6.5,6.6-9.9c1.8-3.2,3.3-6.5,4.5-9.8c0.1-0.2,0.3-0.4,0.5-0.3
						c3.8,0,7.5-0.3,11.2-1.1c3.5-0.8,7-1.7,10.4-2.7c4.7-1.4,9.3-3.2,13.8-5.1c5.1-2.2,10.2-4.7,14.9-7.7c2.5-1.6,5.1-3.2,7.5-5
						c1.4-1,2.6-2.1,3.9-3.2l0.2-0.2v0.7c-0.1,0.1-0.2,0.1-0.2,0.2c-0.2,0.9-0.3,1.7-0.5,2.6c-0.6,3-1.1,5.9-1.8,8.9
						c-0.7,3-1.6,6-2.4,9c-0.5,1.9-1.1,3.8-1.8,5.7c-0.9,2.6-2,5.2-3.1,7.7c-0.8,2-1.7,4-2.7,5.9s-2.2,3.7-3.3,5.6
						c-1.3,2.1-2.7,4.1-4.1,6.2c-1,1.5-2.2,3-3.3,4.4L133.2,711.2 M124.8,719.8C124.8,719.8,124.8,719.8,124.8,719.8
						c0-0.1-0.1,0-0.1,0C124.7,719.8,124.7,719.9,124.8,719.8L124.8,719.8"/>
					<path class="st4" d="M133.2,711.2l1.3-1.8c1.1-1.5,2.2-2.9,3.3-4.4c1.4-2,2.8-4.1,4.1-6.2c1.2-1.8,2.3-3.7,3.3-5.6
						c1-1.9,1.9-3.9,2.7-5.9c1.1-2.6,2.1-5.1,3.1-7.7c0.7-1.9,1.3-3.8,1.8-5.7c0.9-3,1.7-6,2.4-9c0.7-2.9,1.2-5.9,1.8-8.9
						c0.2-0.9,0.3-1.7,0.5-2.6c0-0.1,0.1-0.1,0.2-0.2c0.1,0.8,0.3,1.5,0.3,2.3c0.5,4.9,1.2,9.7,2.3,14.5c0.9,4.2,2,8.4,3.3,12.5
						c1.4,3.9,2.9,7.8,4.9,11.4c2.5,4.5,5.3,8.9,8.8,12.7c1,1,2,1.9,3.1,2.8c1.2,1,2.4,1.9,3.7,2.9c-0.4,0-0.7,0-1.1,0
						c-2.1,0-4.2-0.1-6.3-0.1c-2.5-0.1-5.1-0.1-7.6-0.2l-6.6-0.2l-7.2-0.2l-6.8-0.2l-7-0.2l-7-0.2
						C134,711.3,133.6,711.3,133.2,711.2"/>
					<path class="st4" d="M124.8,719.8L124.8,719.8c-0.1,0-0.1,0-0.1,0S124.7,719.8,124.8,719.8
						C124.8,719.8,124.8,719.8,124.8,719.8"/>
				</g>
			</g>
		</g>
	</g>
	<polygon class="st8" points="146.4,711.1 146.4,713.6 143.9,713.6 143.9,707.4 145.1,707.4 145.1,711.1 146.4,711.1 	"/>
	<path class="st8" d="M168.2,713v2.7h-4.1V713l0,0h1.3v-6.8h1.4v6.8L168.2,713L168.2,713z"/>
	<path class="st8" d="M168.8,710.4v2.5h-1.2l0,0v-2.5H168.8L168.8,710.4z"/>
	<polyline class="st8" points="168.8,710.4 168.8,709.2 170,709.2 170,710.4 168.8,710.4 168.8,710.4 	"/>
	<polygon class="st8" points="146.4,711.1 146.4,709.9 147.6,709.9 147.6,711.1 146.4,711.1 	"/>
	<polygon class="st8" points="162.7,711.7 161.4,711.7 161.4,710.4 162.7,710.4 162.7,711.7 	"/>
	<path class="st8" d="M162.7,711.7h1.4v1.4l0,0h-1.4V711.7z"/>
</g>
<g>
	<g>
		<defs>
			<rect id="SVGID_9_" x="262.2" y="652.8" width="131.1" height="68.4"/>
		</defs>
		<clipPath id="SVGID_10_">
			<use xlink:href="#SVGID_9_"  style="overflow:visible;"/>
		</clipPath>
		<g class="st9">
			<g>
				<defs>
					<rect id="SVGID_11_" x="262.2" y="652.8" width="131.1" height="68.4"/>
				</defs>
				<clipPath id="SVGID_12_">
					<use xlink:href="#SVGID_11_"  style="overflow:visible;"/>
				</clipPath>
				<g class="st10">
					<path class="st5" d="M294,652.8c0.1,0,0.2,0.1,0.2,0.1c2.9,1.7,6,3.1,9.3,4.2c3,1,6,1.7,9,2.5c2.5,0.6,5,1.2,7.6,1.6
						c3.3,0.6,6.7,1,10,1.4c2.9,0.3,5.8,0.6,8.7,0.8c2.8,0.2,5.6,0.2,8.4,0.2c2.1,0,4.3-0.1,6.4-0.2c0.2,0,0.3,0,0.4,0.2
						c1.2,2.7,2.9,5.2,4.6,7.6c1.1,1.7,2.2,3.3,3.3,5c1.8,2.6,3.7,5,5.8,7.4c1.8,2.1,3.7,4.2,5.7,6.2c3.5,3.3,7.1,6.5,11.2,8.9
						c2.5,1.5,5.1,2.8,7.7,4.2c0.3,0.1,0.6,0.2,0.9,0.4c-0.4,0.1-0.6,0.2-0.9,0.3l-17,4.8c-1.4,0.4-2.8,0.8-4.2,1.2
						c-2.9,0.9-5.9,1.7-8.8,2.6c-2.7,0.8-5.5,1.5-8.2,2.3l-17.6,4.8c-2.4,0.7-4.9,1.3-7.3,2c-0.3,0.1-0.7,0-1-0.2
						c-2.3-1.4-4.3-3.3-6.2-5.1c-2.7-2.5-4.9-5.5-7.2-8.4c-1.5-2-2.9-4-4.2-6.2c-0.1-0.1-0.1-0.2-0.2-0.3c-0.1-0.2-0.3-0.5-0.4-0.7
						c-1.1-2-2.3-4-3.4-6c-0.7-1.2-1.2-2.5-1.8-3.8c-0.9-2.1-1.8-4.2-2.7-6.4c-0.6-1.6-1.2-3.2-1.8-4.7c-0.6-1.6-1.1-3.2-1.6-4.8
						c-0.8-2.5-1.5-5.1-2.2-7.7c-0.3-1.2-0.7-2.4-1-3.6c-0.3-1.5-0.6-3.1-0.9-4.6C294.3,656.8,294.1,654.8,294,652.8"/>
					<path class="st4" d="M294,652.8c0.1,2,0.3,3.9,0.7,5.9c0.3,1.5,0.5,3.1,0.9,4.6c0.3,1.2,0.6,2.4,1,3.6c0.7,2.6,1.4,5.1,2.2,7.7
						c0.5,1.6,1.1,3.2,1.6,4.8c0.6,1.6,1.2,3.2,1.8,4.7c0.9,2.1,1.8,4.3,2.7,6.4c0.6,1.3,1.1,2.6,1.8,3.8c1.1,2,2.2,4,3.4,6
						c0.1,0.2,0.3,0.5,0.4,0.7c-0.9,0.1-1.7,0.2-2.6,0.3c-2.1,0.2-4.3,0.4-6.4,0.7l-5.6,0.6l-6.4,0.7l-6.3,0.6l-8,0.8
						c-2.1,0.2-4.2,0.4-6.3,0.6c-1.9,0.2-3.9,0.4-5.8,0.5c-0.3,0-0.6,0-0.9,0c0.8-0.4,1.6-0.8,2.4-1.2c2.7-1.4,5-3.2,7.3-5.2
						c3.1-2.7,5.7-5.8,7.9-9.2c1.6-2.4,3.2-4.9,4.4-7.6c1.6-3.3,3-6.7,4.3-10.2c0.8-2.3,1.7-4.6,2.4-6.9c0.7-2.2,1.2-4.5,1.7-6.8
						c0.4-1.8,0.8-3.7,1.2-5.5C293.9,653.1,293.9,653,294,652.8"/>
				</g>
			</g>
		</g>
	</g>
	<path class="st8" d="M340.7,716.9c0,0.7,0,1.4,0,2.2h-2.2c0-1.1,0-2.2,0-3.3l0,0h1.1v1.1L340.7,716.9L340.7,716.9z"/>
	<rect x="282.4" y="698" class="st8" width="1.1" height="2.1"/>
	<path class="st8" d="M360.6,711.6h-1.1l0,0v-1.1h1.1L360.6,711.6z"/>
	<path class="st8" d="M282.4,702.3h1.1v-2.2h1.1v2.2h1.1l0,0v2.1h-3.3L282.4,702.3L282.4,702.3"/>
	<polygon class="st8" points="356.2,712.7 357.3,712.7 357.3,709.4 358.4,709.4 358.4,711.6 359.5,711.6 359.5,711.6 359.5,713.7 
		356.2,713.7 356.2,712.7 	"/>
	<path class="st8" d="M337.5,713.7h1.1v2.2l0,0h-1.1V713.7z"/>
	<polygon class="st8" points="340.7,716.9 340.7,714.8 341.8,714.8 341.8,716.9 340.7,716.9 	"/>
	<polygon class="st8" points="281.4,701.3 280.3,701.3 280.3,700.2 281.4,700.2 281.4,701.3 	"/>
	<polygon class="st8" points="281.4,701.3 282.4,701.3 282.4,702.3 282.5,702.3 281.4,702.3 281.4,701.3 	"/>
	<polygon class="st8" points="285.7,702.3 285.7,701.3 286.8,701.3 286.8,702.3 285.7,702.3 	"/>
	<polygon class="st8" points="356.2,712.7 355.2,712.7 355.2,711.6 356.2,711.6 356.2,712.7 	"/>
	<polygon class="st8" points="337.5,713.7 336.4,713.7 336.4,712.6 337.5,712.6 337.5,713.7 	"/>
</g>
</svg>
